<svg xmlns="http://www.w3.org/2000/svg" xmlns:xlink="http://www.w3.org/1999/xlink" version="1.1" width="256" height="256" viewBox="0 0 256 256" xml:space="preserve">

<defs>
</defs>
<g style="stroke: none; stroke-width: 0; stroke-dasharray: none; stroke-linecap: butt; stroke-linejoin: miter; stroke-miterlimit: 10; fill: none; fill-rule: nonzero; opacity: 1;" transform="translate(1.4065934065934016 1.4065934065934016) scale(2.81 2.81)" >
	<path d="M 45.055 15.561 C 57.675 3.15 73.971 4.355 82.576 14.076 c 9.153 10.341 5.308 29.639 -6.742 45.063 c -6.107 7.817 -21.196 20.549 -30.779 25.895 V 15.561 z" style="stroke: none; stroke-width: 1; stroke-dasharray: none; stroke-linecap: butt; stroke-linejoin: miter; stroke-miterlimit: 10; fill: rgb(249,249,249); fill-rule: nonzero; opacity: 1;" transform=" matrix(1 0 0 1 0 0) " stroke-linecap="round" />
	<path d="M 84.646 11.504 c -4.517 -5.103 -11.041 -7.985 -18.097 -7.985 c -7.146 0 -14.839 2.956 -21.549 9.555 c -1.087 2.05 -1.357 3.964 0 5.606 l 2.803 -2.756 c 5.513 -5.422 12.17 -8.407 18.746 -8.407 c 5.865 0 11.37 2.419 15.104 6.638 c 7.851 8.87 4.721 27.143 -7.28 42.505 C 68.584 64.069 54.646 75.952 45 81.85 c -1.142 1.642 -1.31 3.2 0 4.631 c 10.126 -5.649 26.069 -19.101 32.523 -27.362 C 90.255 42.822 94.318 22.43 84.646 11.504 z" style="stroke: none; stroke-width: 1; stroke-dasharray: none; stroke-linecap: butt; stroke-linejoin: miter; stroke-miterlimit: 10; fill: rgb(96,96,96); fill-rule: nonzero; opacity: 1;" transform=" matrix(1 0 0 1 0 0) " stroke-linecap="round" />
	<path d="M 45 13.074 C 31.665 -0.041 14.446 1.233 5.354 11.504 c -9.671 10.926 -5.609 31.318 7.123 47.615 C 18.931 67.38 34.874 80.832 45 86.481 V 13.074 z" style="stroke: none; stroke-width: 1; stroke-dasharray: none; stroke-linecap: butt; stroke-linejoin: miter; stroke-miterlimit: 10; fill: rgb(248,48,95); fill-rule: nonzero; opacity: 1;" transform=" matrix(1 0 0 1 0 0) " stroke-linecap="round" />
</g>
</svg>